
<svg xmlns="http://www.w3.org/2000/svg" width="413.333" height="1030.667" version="1.0" viewBox="0 0 310 773"><path fill="rgba(34, 131, 112, 1)" d="M66.1 354.8C37.2 503.7 13.5 626.5 13.2 627.7l-.4 2.3h40c37.2 0 40-.1 40.4-1.8.3-.9 4-24.3 8.3-51.9l7.9-50.3h51.3c28.2 0 51.3.2 51.3.4s3.6 23.3 8 51.2c4.4 28 8 51.2 8 51.6 0 .4 18 .8 40 .8 34.5 0 40-.2 40-1.5 0-1.1-98.6-517-103.1-539.3l-1-5.2h-85.4L66.1 354.8zm114.4-21.7c10.7 66.2 19.5 121 19.5 121.6 0 1-8.7 1.3-40 1.3h-40l.5-2.3c.3-1.2 9.1-54.9 19.5-119.2 20.3-125 20-122.9 20.6-122.2.3.2 9.2 54.6 19.9 120.8z"/></svg>