<?xml version="1.0" standalone="no"?>
<!DOCTYPE svg PUBLIC "-//W3C//DTD SVG 20010904//EN"
 "http://www.w3.org/TR/2001/REC-SVG-20010904/DTD/svg10.dtd">
<svg version="1.0" xmlns="http://www.w3.org/2000/svg"
 width="645.000000pt" height="998.000000pt" viewBox="0 0 645.000000 998.000000"
 preserveAspectRatio="xMidYMid meet">

<g transform="translate(0.000000,998.000000) scale(0.100000,-0.100000)"
fill="rgba(34, 131, 112, 1)" stroke="none">
<path d="M3085 9964 c-311 -32 -491 -61 -715 -115 -104 -25 -390 -106 -397
-113 -2 -1 42 -131 92 -272 2 -8 39 -1 117 23 244 74 525 132 813 165 173 20
715 17 895 -5 736 -91 1383 -343 1979 -771 122 -87 124 -88 140 -68 9 11 50
64 91 117 l75 98 -35 29 c-64 54 -269 192 -407 276 -453 273 -1000 481 -1503
572 -293 53 -400 62 -760 65 -190 1 -363 1 -385 -1z"/>
<path d="M3572 8785 c-217 -96 -396 -176 -399 -179 -6 -5 1209 -2779 1274
-2911 25 -49 77 -146 116 -215 96 -170 121 -218 105 -199 -9 10 -1885 2418
-1954 2508 -2 2 -99 -38 -217 -89 l-213 -94 263 -1575 c144 -866 260 -1577
258 -1580 -3 -2 -5 -2 -5 2 0 15 -102 331 -138 427 -39 105 -1268 2918 -1281
2933 -6 6 -714 -296 -787 -336 -20 -12 20 -105 1206 -2811 675 -1540 1231
-2805 1236 -2812 7 -10 101 27 399 158 215 94 391 172 393 174 2 1 -105 791
-237 1756 -193 1411 -245 1769 -266 1837 -15 47 -29 92 -32 100 -3 9 14 -18
37 -59 23 -41 56 -93 73 -115 159 -202 2242 -2715 2251 -2715 6 0 184 76 396
169 252 111 384 174 382 183 -5 24 -2457 5618 -2462 5617 -3 0 -182 -79 -398
-174z"/>
<path d="M997 1580 c-43 -67 -75 -125 -72 -130 12 -20 264 -164 437 -250 466
-232 962 -380 1498 -447 183 -22 768 -25 955 -5 304 34 659 110 941 203 143
46 389 141 402 153 9 10 -111 277 -122 272 -422 -175 -767 -267 -1216 -323
-171 -21 -709 -25 -875 -5 -642 75 -1205 261 -1725 572 -74 44 -137 80 -140
80 -3 0 -40 -54 -83 -120z"/>
</g>
</svg>
